<svg width="36" height="28" viewBox="0 0 36 28" fill="none" xmlns="http://www.w3.org/2000/svg">
<path d="M6 28C4.33867 28 2.92333 27.4153 1.754 26.246C0.584667 25.0767 0 23.6613 0 22V6C0 4.33867 0.584667 2.92333 1.754 1.754C2.92333 0.584666 4.33867 0 6 0H30C31.6613 0 33.0767 0.584666 34.246 1.754C35.4153 2.92333 36 4.33867 36 6V22C36 23.6613 35.4153 25.0767 34.246 26.246C33.0767 27.4153 31.6613 28 30 28H6ZM6 7H30C30.7853 7 31.5173 7.13467 32.196 7.404C32.8747 7.67333 33.476 8.068 34 8.588V6C34 4.9 33.6087 3.95867 32.826 3.176C32.0433 2.39333 31.1013 2.00133 30 2H6C4.9 2 3.95867 2.392 3.176 3.176C2.39333 3.96 2.00133 4.90133 2 6V8.588C2.52267 8.068 3.124 7.67333 3.804 7.404C4.484 7.13467 5.216 7 6 7ZM2.068 12.46L24.742 17.978C24.9913 18.0447 25.2467 18.0507 25.508 17.996C25.7693 17.9427 25.9947 17.8287 26.184 17.654L33.634 11.354C33.3447 10.6487 32.8713 10.08 32.214 9.648C31.5567 9.216 30.8187 9 30 9H6C4.97867 9 4.09867 9.32733 3.36 9.982C2.62 10.638 2.19 11.4647 2.07 12.462" fill="black"/>
</svg>
