<svg width="37" height="31" viewBox="0 0 37 31" fill="none" xmlns="http://www.w3.org/2000/svg">
<path fill-rule="evenodd" clip-rule="evenodd" d="M1.34998 12.28H30.12C30.48 12.28 30.81 12.43 31.08 12.7L35.64 17.38C36.48 18.25 35.88 19.72 34.68 19.72H5.90998C5.54998 19.72 5.21998 19.57 4.94998 19.3L0.389983 14.62C-0.450017 13.75 0.149983 12.28 1.34998 12.28ZM0.389983 6.06997L4.94998 1.38997C5.18998 1.11997 5.54998 0.969971 5.90998 0.969971H34.65C35.85 0.969971 36.45 2.43997 35.61 3.30997L31.08 7.98997C30.84 8.25997 30.48 8.40997 30.12 8.40997H1.34998C0.149983 8.40997 -0.450017 6.93997 0.389983 6.06997ZM35.61 25.9L31.05 30.58C30.78 30.85 30.45 31 30.09 31H1.34998C0.149983 31 -0.450017 29.53 0.389983 28.66L4.94998 23.98C5.18998 23.71 5.54998 23.56 5.90998 23.56H34.65C35.85 23.56 36.45 25.03 35.61 25.9Z" fill="black"/>
</svg>
